
<global>
amp_veltrack=0
ampeg_release=0.45
</global>

<group>
group_label=Group_0-42
lpc_hicc1=42
lpc_locc1=0

<region>
end=115200
hikey=a#2
hivel=127
lokey=a2
lovel=0
lpc=Umc5Qxy+4cOkyZZDsX2xwUObGUKCbn/CiUIOQZB9D0HAhuI/y81ZwcJqusDKvchAZsoRQUcHlUCc7+Q/EU3pwFncq8A7Oym/6CmeQBRd0j7QE5/AbVRtwCGrTkFzN7bA
lpc_rms=-47.63
pitch_keycenter=a#2
sample=Horn_marcato_half_PP_A#2.opus
</region>

<region>
end=115200
hikey=a#3
hivel=127
lokey=a3
lovel=0
lpc=FzMZQz0LjcPJEqFCkS06Qj8ooEFhqco+vHbtwD5W8MDIzbrArRkrwFJztz8jzSJAM1yKP1JWAj7KyAU/hyEoPxcr/D+9OzBA06d3P6acgr/ZHmvA3aaXwAOLdcCO5vFA
lpc_rms=-39.62
pitch_keycenter=a#3
sample=Horn_marcato_half_PP_A#3.opus
</region>

<region>
end=115200
hikey=a#4
hivel=127
lokey=a4
lovel=0
lpc=JrUTRA69ccQ6e1VDECIGQ9h7jUJRAslBQRiNv9xvacERzbnBr6+8wZRnU8E5ToVAVPBLQcQYLEE6RStBJUxGQTyRI0GLp8BAKMNawDSXbcFXVbbBysbXwZpCCsLpEK1C
lpc_rms=-25.98
pitch_keycenter=a#4
sample=Horn_marcato_half_PP_A#4.opus
</region>

<region>
end=115200
hikey=c3
hivel=127
lokey=b2
lovel=0
lpc=UvInQ/uc1sNF3qRDcTVlwub/6UGu/nfCHvqWQQS7mUC/V0FAEwVLwUIjDkGEvmtA/MZPwN0LYcAy/p1A3R7Rv53Jh8ClXYY/WOOmQJu05r3DbhXAYriVwPJxwz87hylA
lpc_rms=-47.68
pitch_keycenter=c3
sample=Horn_marcato_half_PP_C3.opus
</region>

<region>
end=115200
hikey=c4
hivel=127
lokey=b3
lovel=0
lpc=lI+MQ7KODMTwbD9D7428QtYcGkIbfNW/V6eFwV8XfMEAnyzB8B+ZwJgYL8ADl44/DU+8QKiCw0AuGMBAMJR6P42jt8BLO/TAN0+GwECca78doW1ACTfHQLfFIUDUxG/A
lpc_rms=-37.11
pitch_keycenter=c4
sample=Horn_marcato_half_PP_C4.opus
</region>

<region>
end=115200
hikey=c5
hivel=127
lokey=b4
lovel=0
lpc=YKRQQ7C4BcRUQcdDr+CsQb+QjcJRd0LClQwAwLnYBEJkWHRBsJ5pwbLjy8C0IApAj08IwMgTE0Gy4j9AwLBNwWrH07zzUF1BW8mNv8rkjcH7ZqtAtf7bQTWeGML/EphB
lpc_rms=-31.45
pitch_keycenter=c5
sample=Horn_marcato_half_PP_C5.opus
</region>

<region>
end=115200
hikey=d3
hivel=127
lokey=c#3
lovel=0
lpc=IFd4QzcaGMQHptFDWR2KwXyNF8FnBAjCUGH8wNgSBEGKqx1BT6+4wKfz1sArL+ZALX09wO/CSL8yAfpAgsJBwBmdV8HGRSO/yN6YQQyZrUBi5jvBet09wZSRHkHENT0/
lpc_rms=-41.21
pitch_keycenter=d3
sample=Horn_marcato_half_PP_D3.opus
</region>

<region>
end=115200
hikey=d4
hivel=127
lokey=c#4
lovel=0
lpc=WkwXQz5oo8P++hpDakIYQjFYv0DdHuvAOA0jwebmtsAH0HnAVQ1DwJCgC0Dtor5AQcGlQGjkNEDybhDAk/sVwYb4uMAup21A9waMQJvUDEAjfqW+8YJlPxEiEMAalxw+
lpc_rms=-41.15
pitch_keycenter=d4
sample=Horn_marcato_half_PP_D4.opus
</region>

<region>
end=115200
hikey=d5
hivel=127
lokey=c#5
lovel=0
lpc=KGYPQ3knn8PY3j1DhMAsQiyOA8I7GgXC7vc9wK6TfUHS0BZBaKVYwOQGp8AlBVE/xzQNQPvUbD0kHOk/yfNAQJxUZL6njrTAzTbNwBE5dEBTT41Bukj8QGQFLsJB/uFB
lpc_rms=-31.52
pitch_keycenter=d5
sample=Horn_marcato_half_PP_D5.opus
</region>

<region>
end=115200
hikey=e3
hivel=127
lokey=d#3
lovel=0
lpc=pklyQ+UoK8TclRxE7KQiw0jyHkF4b2DCLzxgQdggs0FzXYrB85WCwJVVh0Hg3lhBBlABwuH8jUArtVVBxCXUwITxGMBI8VZApnFmQVAa6MA3CSvBUrzUwSQcP0JAaorB
lpc_rms=-39.81
pitch_keycenter=e3
sample=Horn_marcato_half_PP_E3.opus
</region>

<region>
end=115200
hikey=e4
hivel=127
lokey=d#4
lovel=0
lpc=ru2CQwtPJsQFst9DEo3fQfahisDFj0LCfBtLwp+mG0FxnJFBZCOnwC9170BLJy1BtT4wQHZZD0BRxKjAXVKdwb5vjcDvbmJB0zoyQWs8JcHyLDO/Nr1wQXiO3MH8qmlB
lpc_rms=-36.88
pitch_keycenter=e4
sample=Horn_marcato_half_PP_E4.opus
</region>

<region>
end=115200
hikey=e5
hivel=127
lokey=d#5
lovel=0
lpc=FFwLQ1RDycNsOd5D+wJUw/QMYUI3mFfCjE8zQnKJHL82FAjBA1rjwXRpGULcM4RAHitHwSgWQkEmv0LCmOf5QfM9I0JFyBfCsXBlwdJGykEUJJfAQ1Y4P8L8FcH3uhlB
lpc_rms=-34.24
pitch_keycenter=e5
sample=Horn_marcato_half_PP_E5.opus
</region>

<region>
end=115200
hivel=127
key=f#2
lovel=0
lpc=s0ILQ7V3ncOiNSlDK/YGQj/eF0CU677BiehCwQZwLUBzave+94pKQI8Rg0CgJoi+JxQSwNdKTr+HJ4o+yrG9PzrFEj8P8MC/KB+IPxnKir8zOgO/OCFbP92lg79MKlY/
lpc_rms=-47.34
sample=Horn_marcato_half_PP_F#2.opus
</region>

<region>
end=115200
hikey=f#3
hivel=127
lokey=f3
lovel=0
lpc=/ulWQ7UiHcQ4oCBExTt/w2aqZkIYHXjCaob+QQkhasDNm53A5pUFQcpzEUE1/JU+zpy9wcnGi0EPv5pAVTOCwVUaDEFwhdhAo2GWPzDeIcG6dM3AGXbvv+gqY0EMVorA
lpc_rms=-40.79
pitch_keycenter=f#3
sample=Horn_marcato_half_PP_F#3.opus
</region>

<region>
end=115200
hikey=f#4
hivel=127
lokey=f4
lovel=0
lpc=SUwXQwHRmMMzmNpCwCxoQoeSnEFZa6TAfhx4wWdcaMEPCwHBBaXvvvmpo0AeVd1AwkurQGhA/T/046i/KppKwJsmRMB9zQLAc867PKt+SUCISnJAAsKjvyp6Y8EGrEBB
lpc_rms=-36.06
pitch_keycenter=f#4
sample=Horn_marcato_half_PP_F#4.opus
</region>

<region>
end=115200
hikey=f2
hivel=127
lokey=C2
lovel=0
lpc=VCXbQtsyUsNPf4pCiQEBQpvPTkEpFLG/l4O9wEppj8D0dTbA3dGkv4/XsT6JD60/RT1IP/09bj/GbZo/6rsvPwhjLL8YDFK/9RzKv2rhpL/A/Bm//flUP93d5j/Wbui9
lpc_rms=-48.98
pitch_keycenter=f2
sample=Horn_marcato_half_PP_F2.opus
</region>

<region>
end=115200
hikey=g#2
hivel=127
lokey=g2
lovel=0
lpc=mJobQzRBu8NRQGJDKiEJQpcnGMGj9NXBVvBEwf1KT0BhN4FAoQSHwP8CFb9PIaFAurhAQMwPjb8k8Iw/KSz9v7XbUr+dqhi/oPpMwB+NtD9P6ZVAd1KMv6I8H8A/e6s/
lpc_rms=-43.63
pitch_keycenter=g#2
sample=Horn_marcato_half_PP_G#2.opus
</region>

<region>
end=115200
hikey=g#3
hivel=127
lokey=g3
lovel=0
lpc=gAA8Q8xdusOQvgJDYJJ7Qg9ZnkHXYNfA2HBTwVXYFcEjD9u/cVLQP63OpD7MZTQ/8I2GP8pfF0AgN90/evYovzZtQMB0y13AAzorvxP2+r0qq38+ZdinP7pb10A5mI7A
lpc_rms=-38.01
pitch_keycenter=g#3
sample=Horn_marcato_half_PP_G#3.opus
</region>

<region>
end=115200
hikey=g#4
hivel=127
lokey=g4
lovel=0
lpc=/CklQ3Ylk8NcJopCHNxAQrU020EwMBBBSB0GwMxo3MAIkv7AZqvRwPCHhMBoN7O/WClRPqordD9rodQ/YGjzP9f7O0AgKGVAUo6MQEDcG0BUckDAA3QlwSxWlsFWrrdB
lpc_rms=-36.37
pitch_keycenter=g#4
sample=Horn_marcato_half_PP_G#4.opus
</region>
</group>

<group>
group_label=Group_43-84
lpc_hicc1=84
lpc_locc1=43

<region>
end=115200
hikey=a#2
hivel=127
lokey=a2
lovel=0
lpc=di2LQiyYL8MmQgNDII05P76X1sHGJubASvXWQF8/mkCBic6/MmU/wCUbGr34gtc/niyKP90DJD5Uz5u/8+Q3v40Puz+AjMk/Rurkv4asLcCLao8/L4MuQIVlKsB3oK4/
lpc_rms=-34.99
pitch_keycenter=a#2
sample=Horn_marcato_half_MF_A#2.opus
</region>

<region>
end=115200
hikey=a#3
hivel=127
lokey=a3
lovel=0
lpc=LCgDQyEj6MPV8SFEwGLRw0JHp0IXOvtB/3plP+36d8G7gzZAwNrbQP4MeMGMzBdB+v8xQXaJXMFFBtnA5fOSQY1MqMClK9nAddSBPtHYBEEQHt7AX3iOv8bTw0DOyTrA
lpc_rms=-32.24
pitch_keycenter=a#3
sample=Horn_marcato_half_MF_A#3.opus
</region>

<region>
end=115200
hikey=a#4
hivel=127
lokey=a4
lovel=0
lpc=MuuwQiPoqMOx4wxETzQExPGLmkMNFwrDRdWnQn+zicIYUxBCVUP5P59/wMG37RFCNj4PwoA5a0FBwStBGH7pwbzkHkIOx77B/XJRwVQmxEH8L4XACkurwIgRg7/HgixA
lpc_rms=-34.03
pitch_keycenter=a#4
sample=Horn_marcato_half_MF_A#4.opus
</region>

<region>
end=115200
hikey=c3
hivel=127
lokey=b2
lovel=0
lpc=VLNnQtGtTsOJ3aRDflSiwx6EZ0OUoP/CCQxGQjoy+L/tz5rBgJurQUotZ8HzLM5AlbecP3MlscC1XnFA4HakPwpIisCYwcFA7uPXwNwIX0DW9mg/QYxAwJAuFEBuWgG/
lpc_rms=-41.33
pitch_keycenter=c3
sample=Horn_marcato_half_MF_C3.opus
</region>

<region>
end=115200
hikey=c4
hivel=127
lokey=b3
lovel=0
lpc=zR/eQlC548N9ElZE8KB7xIKaVUS9wRDEXQqpQ9J1LMOz7aBCmqV+wrFzvULk3dHC3ZNXQgzxw0GAFYrCMhyGQvZcUsKyoUtCbPSIwr1uvUKIIMPChAt5Qo15qcHzRkNA
lpc_rms=-30.73
pitch_keycenter=c4
sample=Horn_marcato_half_MF_C4.opus
</region>

<region>
end=115200
hikey=c5
hivel=127
lokey=b4
lovel=0
lpc=kEnSQqGOjsNiAZdD8Ef4wjegvsGe9yBCeNwewX83PMGnP2VBD1MDQWOIi8EUkqHAKGevQb0XQ74U16bBnJIDQd1nhUGS4kbBQjsbwZcR5UACNmpAS2d3QQLaC8IFEqZB
lpc_rms=-23.52
pitch_keycenter=c5
sample=Horn_marcato_half_MF_C5.opus
</region>

<region>
end=115200
hikey=d3
hivel=127
lokey=c#3
lovel=0
lpc=PtN9QhBsW8NlnaND9CaKwxefC0PsaPvBEBtjwYCIpkH4S4PBsmwrQZrmPcCm9pbAIagPQYLH+cDMEENAskavPzfJs8ANNyNB98LewIeWrsDRH1lB6KwkwZ9hT0ARK049
lpc_rms=-35.15
pitch_keycenter=d3
sample=Horn_marcato_half_MF_D3.opus
</region>

<region>
end=115200
hikey=d4
hivel=127
lokey=c#4
lovel=0
lpc=mKfBQrK3tcOBGiREfRxIxBVcQERF6RzErI3gQ1jmjsMPJB5DHhqGwpUwFEFgGrBBvvrbwZ/3pkEqcZPBtRapQRyXncGU43RB5gqHwcDcoEELd4TB/wItQblVyMDAAhFA
lpc_rms=-26.75
pitch_keycenter=d4
sample=Horn_marcato_half_MF_D4.opus
</region>

<region>
end=115200
hikey=d5
hivel=127
lokey=c#5
lovel=0
lpc=Fc4KQjF5yMLjjvhCmPCiwjr2o0Fa3lZB7dJCwQLKLj9nmjFApA9+v+PUA0Dc4QbAn4CZv5yIpD/zLYO/iPaFQIsP6L+FlIPAU5L0QN0cKcDRoSHBfjGrQer6ncFYWgBB
lpc_rms=-32.30
pitch_keycenter=d5
sample=Horn_marcato_half_MF_D5.opus
</region>

<region>
end=115200
hikey=e3
hivel=127
lokey=d#3
lovel=0
lpc=7IKpQuY2msMzKPZDTofrw0BPoUOwMzXDb++pQpzT98E53X1B5Ga+wTgREkL1ThbCQU92QWeVtEG+pELCiqYrQnWhpsFzTo9B2aD9wUOf+kHhaa/B65yoQZPnisGlbsRA
lpc_rms=-33.46
pitch_keycenter=e3
sample=Horn_marcato_half_MF_E3.opus
</region>

<region>
end=115200
hikey=e4
hivel=127
lokey=d#4
lovel=0
lpc=Pp5RQqwbHcPh9TdD4XnKwuhnmEGW4h9BbYpnwcD8JEGS3dQ/7oIIwS0ibUCmsE1A7fpCwEzU9byDrqy9wNc/QGjyyL91QEPAvrBVQK3+E7+UlbK/NhlxQCoWp8AcESBA
lpc_rms=-31.18
pitch_keycenter=e4
sample=Horn_marcato_half_MF_E4.opus
</region>

<region>
end=115200
hikey=e5
hivel=127
lokey=d#5
lovel=0
lpc=sfCLQtJ1S8NGFXpDXW8Tw49CqEE8UgFCte+xwTZ6qcD3HYpBI6HLPvaMicHl/uVAo2NzQSjsQcEHd7zABwsvQaHl879IwXTAAEsTQbaPAMEiFWrB74hKQm0fV8LJxblB
lpc_rms=-31.26
pitch_keycenter=E5
sample=Horn_marcato_half_MF_E5.opus
</region>

<region>
end=115200
hivel=127
key=f#2
lovel=0
lpc=n0fvQu0utcO/b7xDPOjIwlUFhcKoJFJB637ZQbxEbkDjeEHBEGiXwBvS4ECQ1YBAV/lcwM5hqcAWVIy+GF8MQQiU3j7fmM7A4LB+wBipUECUlspA4s+XPsQmEsHPlZpA
lpc_rms=-38.10
sample=Horn_marcato_half_MF_F#2.opus
</region>

<region>
end=115200
hikey=f#3
hivel=127
lokey=f3
lovel=0
lpc=dsySQj1tXsN3l39DiOnswsiuH8FbBuVBGOsqv81H1cCYRZXAAZmSQGj710BuV47A68mbwC29UkBP+wFA3HT2vz6W4j6Ml6A/DZwgwDLwD7/9Ez1A+DNBwCw+VUAaz66/
lpc_rms=-34.76
pitch_keycenter=f#3
sample=Horn_marcato_half_MF_F#3.opus
</region>

<region>
end=115200
hikey=f#4
hivel=127
lokey=f4
lovel=0
lpc=AfpEQpPHCsPQXRJDTGhlwiYbZsFZ8ZlBmpT7vuZTpsCxVABA+8mAu6Kl+7/5leo/Z+7+P5jXXr8H2sS/v3aUv1EUFj9uMD5Ax/kKPeSQh8DKLgg/FX/NQLF9+MBVHGBA
lpc_rms=-28.98
pitch_keycenter=f#4
sample=Horn_marcato_half_MF_F#4.opus
</region>

<region>
end=115200
hikey=F2
hivel=127
lokey=C2
lovel=0
lpc=CpLpQu3oxsMrnQREeXamw940rkIh9SbBND5iQeSjw8DnexzAwGPwP57mr7+mRpJAp0/pwKQ+AUGLl9/AvxTEPoZp9kBz9RvAcmbcwFmPtr/tSSRBjsaEvmRDCcFJ5oZA
lpc_rms=-41.35
pitch_keycenter=F2
sample=Horn_marcato_half_MF_F2.opus
</region>

<region>
end=115200
hikey=g#2
hivel=127
lokey=g2
lovel=0
lpc=6qSgQtImZMOsfFpDbCA4wsgwLcKMwhdBg6paQcOOH77mbDLAuuB/wOTb8T8v+QlAoqLnP3OGgMBidgi/l9BZQJAkXT/MliHA5cSsvxi95z0H34s/aIy5QHeQHsFOX5RA
lpc_rms=-39.24
pitch_keycenter=g#2
sample=Horn_marcato_half_MF_G#2.opus
</region>

<region>
end=115200
hikey=g#3
hivel=127
lokey=g3
lovel=0
lpc=es7IQo7nqcNLwOZD6HWUw2tdSkJMF1RC1gkAwiZO9b/N7NdAinhOQCJhxMBvTZfAuL0yQZfSNj+KwwzBs/g/QKCQ8j9vzQC/kElNQPHLGMGTQ4u/xteQQf5NeMGYw4hA
lpc_rms=-32.21
pitch_keycenter=g#3
sample=Horn_marcato_half_MF_G#3.opus
</region>

<region>
end=115200
hikey=g#4
hivel=127
lokey=g4
lovel=0
lpc=3+ZkQkI8GsPRsSBDrY2awgiWAEEZAy1BoTyWwHesLEBoIhDBnyR2QOr9MEGr0R/BXdQxwO4SKkFtoNPAX5HbvxJsBEHu7eDAIGJ6wP4vuUADRsu+J0H1QIjmh8EyYxpB
lpc_rms=-25.03
pitch_keycenter=g#4
sample=Horn_marcato_half_MF_G#4.opus
</region>
</group>

<group>
group_label=Group_85-127
lpc_hicc1=127
lpc_locc1=85

<region>
end=115200
hikey=a#2
hivel=127
lokey=a2
lovel=0
lpc=WxSgQWP8Z8Imc59ChROfwg+BjkLQNnDCcnRAQpC4FMLBoddBswOKwdWHIEEijqHAWqYgQKMto79z/9M+EBPEP1+EncBwbvxAlyIFwV+l40AJsLnAcWOCQHInD8A/VWY/
lpc_rms=-32.76
pitch_keycenter=a#2
sample=Horn_marcato_half_FF_A#2.opus
</region>

<region>
end=115200
hikey=a#3
hivel=127
lokey=a3
lovel=0
lpc=MowiQdMAvsFMO9FBmqe7wSkjrUEOlp7BUWWLQeJEbsEmT0JBTogRwU2AzEB2fnDA0LzNP2B/wT4KWeG/DfEeQH0YOcB3AVBAqacpwBE8zT/W/ZS/VL7DPw7aqr+8ctc+
lpc_rms=-28.22
pitch_keycenter=a#3
sample=Horn_marcato_half_FF_A#3.opus
</region>

<region>
end=115200
hikey=a#4
hivel=127
lokey=a4
lovel=0
lpc=hTS1QJHaL8G9SjBBpUsiwTHQG0FnNfzA5a7BQCQZn8BFz19AjT1CwHfhE0ClJkO/t4UpvWQEPz/DSY2/sk9tP5Qvl7+0l5o/5U4Jvy1ITj+qtZm/XECPPx1mKb/SaxE/
lpc_rms=-27.10
pitch_keycenter=a#4
sample=Horn_marcato_half_FF_A#4.opus
</region>

<region>
end=115200
hikey=c3
hivel=127
lokey=b2
lovel=0
lpc=25MkQT5JxcE8xuFBca3TwftawkEfo6jBXnSNQdv2Z8GGuDdBD+kOwdF62kA42ofAf1TiP79Jvz5BGAPAsrxpQFWqmsBDZqJAmQWLwHMoaUDBgTzA9iP6P7lWrb95FjA/
lpc_rms=-33.71
pitch_keycenter=c3
sample=Horn_marcato_half_FF_C3.opus
</region>

<region>
end=115200
hikey=c4
hivel=127
lokey=b3
lovel=0
lpc=tTnPQGQUWsEfxVpBwKo+wVhVK0HP5hbBwygCQbXd0cDzBpRAO0tJwOhNEUAalpO/hroRPib/AT8TdFi/pf/OP9hzDsCWawxALyPpvxhWsz+al8m/KaXSP4Pgbr8aw7U+
lpc_rms=-29.30
pitch_keycenter=c4
sample=Horn_marcato_half_FF_C4.opus
</region>

<region>
end=115200
hikey=c5
hivel=127
lokey=b4
lovel=0
lpc=7nMhQeaDrcFRrLVBb3WjwRVKo0ES9qDBjReQQc5cgcEZDlRBgEQjwSc4FEEv3efAbh6mQPJWH8BafGQ/XDp5P0UxeMA2oZFA0UFqwHIuJ0Dfj8S/4N4BP3UZZb4+5Ew/
lpc_rms=-23.11
pitch_keycenter=c5
sample=Horn_marcato_half_FF_C5.opus
</region>

<region>
end=115200
hikey=d3
hivel=127
lokey=c#3
lovel=0
lpc=648EQUkNksFBoJpB9dOMwa3cgkHeO2vBtYBLQWmxK8G1xQxBXNzRwFhemkCJoFHAMkULQGdRRb/r6B++xMiOPziSB8AXQBRAs0XrvyzVpD9t6GO/AEcEP95M4r72t8M+
lpc_rms=-31.59
pitch_keycenter=d3
sample=Horn_marcato_half_FF_D3.opus
</region>

<region>
end=115200
hikey=d4
hivel=127
lokey=c#4
lovel=0
lpc=0WgLQfY6jcGr3oNBJItgwUKFVEHQtkfB63kvQdcbDsEJFeVAKIi9wEtWo0CKfyHApjJ7vb9aH0DdN3/AeVyGQDiUisBu/I5AevpiwOMML0DbKzbAyQ00QETdB8BU6nM/
lpc_rms=-25.29
pitch_keycenter=d4
sample=Horn_marcato_half_FF_D4.opus
</region>

<region>
end=115200
hikey=d5
hivel=127
lokey=c#5
lovel=0
lpc=WKhyQIkFy8AMprZAT56fwOtAj0Drr3DAp9szQJ/H6b85lrY/T06Yv73dij8OyeO+9r1PvsLIUz/DoIa/+JWgPwpwsr8DWJc/mJ0fv5nH3j5kA1m96VjTPVN1Fb5GOYk+
lpc_rms=-29.39
pitch_keycenter=d5
sample=Horn_marcato_half_FF_D5.opus
</region>

<region>
end=115200
hikey=e3
hivel=127
lokey=d#3
lovel=0
lpc=R+4gQebJr8FkH7VBFASdwW7sjEEujH3BDOBYQVmLLcEqPwhBJz3NwLSwmUDAxTrALBm5PyH8Cr661m+/Uc/JP3VzD8BMjUVAv9dNwDUHKUBoSPi/NZSjP0YnDr8x67k+
lpc_rms=-29.59
pitch_keycenter=e3
sample=Horn_marcato_half_FF_E3.opus
</region>

<region>
end=115200
hikey=e4
hivel=127
lokey=d#4
lovel=0
lpc=ZbLPQEI5YcHubGVBty1Cwdm8J0F5aQXBm1HSQCdBt8AulZlAG5ySwDlOlEA/7WPA9RcgQHkXvr9j/Ok+lp6lPqdvm78J6Lw/i1ulvnsFML8O72E/SRCuv3C3AkBt9o6/
lpc_rms=-27.35
pitch_keycenter=e4
sample=Horn_marcato_half_FF_E4.opus
</region>

<region>
end=115200
hikey=e5
hivel=127
lokey=d#5
lovel=0
lpc=Vu0OQZnOkMFQT5JBz7VtwQFLUUFtxi7BA9IZQQ0nD8GJiRBB17kOwa5zDUFhh/7A02bPQI1Zl8AfXnRAa4AYwJyjZj+67Oo+/AtBPyw/f7/MQ+++r0oVQN1LHMAcNM4/
lpc_rms=-23.10
pitch_keycenter=E5
sample=Horn_marcato_half_FF_E5.opus
</region>

<region>
end=115200
hivel=127
key=f#2
lovel=0
lpc=oiC7QeN6ksIQ+thC3VnjwpDF0kLvILzC8dCiQgEAiMKqpVRC8A0Uws2ls0ESRjLBM3hVQILxQEANrgrBZYhPQXgJfMFzTYZBQKh1wXKzQUFHggzBF2bDQEgpXsCzm48/
lpc_rms=-36.22
sample=Horn_marcato_half_FF_F#2.opus
</region>

<region>
end=115200
hikey=f#3
hivel=127
lokey=f3
lovel=0
lpc=+i7qQMA5csG+3WpBsm5JwRj9OEH7DibBqmATQWre7cDYwbNAU3OHwFGCXUB1ajjAPpgZQJWCpL8A7to+2s/APjvGm7+hW74/GCx6v9YrCT9tbTK/3op+PwJRYb9b3hM/
lpc_rms=-31.33
pitch_keycenter=f#3
sample=Horn_marcato_half_FF_F#3.opus
</region>

<region>
end=115200
hikey=f#4
hivel=127
lokey=f4
lovel=0
lpc=4m7RQLRwXsHVeWNBeGBJwXyUM0HD+BnBLc8JQe9F+MATCtVAC/CnwF2rf0Duk07AOhhIQBhSCsB9BIA/KtffPog3/b9BVx5AUmktwLnUMUDXBgvAFgP5Py+Vs7+2U9U+
lpc_rms=-28.15
pitch_keycenter=f#4
sample=Horn_marcato_half_FF_F#4.opus
</region>

<region>
end=115200
hikey=F2
hivel=127
lokey=C2
lovel=0
lpc=u7c9QhjKHsOGGG5DkFpiw9XeJUMXzc7CRwBaQgCyrsGNKRBA9IHrQIaYC8FywOVAN6O0wAhiwEBSEunAnkPVQAT/k8DPfNE/CxFRQFWV3cBFha5An6+zv8VoJL8EzwM/
lpc_rms=-37.42
pitch_keycenter=F2
sample=Horn_marcato_half_FF_F2.opus
</region>

<region>
end=115200
hikey=g#2
hivel=127
lokey=g2
lovel=0
lpc=Y2ILQnPv6cKa6zhDbbVMw2OGR0O/yTvDf8csQwxVG8NA9wZD+pbgwth8tULQYYzCCJ9KQsw8BcKC/Z1BoOEJwUb2GcAEGjJBJW5gwYHNOUHNRufAqOiCQPXSG8A67XU/
lpc_rms=-34.03
pitch_keycenter=g#2
sample=Horn_marcato_half_FF_G#2.opus
</region>

<region>
end=115200
hikey=g#3
hivel=127
lokey=g3
lovel=0
lpc=mIY4QQQx58FDqAlCisT/wQT26EHbG9PBkJq6QaYCosF0VoVBvYJCwSKH+kCM0o3AnCcQQLWGhT6/H0fADlycQBSvrcAAS6pANMqcwKOcY0ApJRHAqQMRQAJd1r8r9xw/
lpc_rms=-29.52
pitch_keycenter=g#3
sample=Horn_marcato_half_FF_G#3.opus
</region>

<region>
end=115200
hikey=g#4
hivel=127
lokey=g4
lovel=0
lpc=kFO5QNW7O8FrOjRBzJ8hwWsmFUEXLOvAt9O8QGoum8DJZmNAg9YjwDmHAUCXROa/2b7jPwLrf7/VKO4++j/Qvq3lyb62Ans/ICYiv7Rmwj5z5+K8sXQ0vPzhWb69qU4+
lpc_rms=-28.59
pitch_keycenter=g#4
sample=Horn_marcato_half_FF_G#4.opus
</region>
</group>

<group>
group_label=RR1
seq_length=4
seq_position=1

<region>
hivel=127
key=A#2
lovel=85
sample=Horn_staccato_FF_A#2_RR1.opus
</region>

<region>
hivel=127
key=A#3
lovel=85
sample=Horn_staccato_FF_A#3_RR1.opus
</region>

<region>
hivel=127
key=A#4
lovel=85
sample=Horn_staccato_FF_A#4_RR1.opus
</region>

<region>
hivel=127
key=A2
lovel=85
sample=Horn_staccato_FF_A2_RR1.opus
</region>

<region>
hivel=127
key=A3
lovel=85
sample=Horn_staccato_FF_A3_RR1.opus
</region>

<region>
hivel=127
key=A4
lovel=85
sample=Horn_staccato_FF_A4_RR1.opus
</region>

<region>
hivel=127
key=B2
lovel=85
sample=Horn_staccato_FF_B2_RR1.opus
</region>

<region>
hivel=127
key=B3
lovel=85
sample=Horn_staccato_FF_B3_RR1.opus
</region>

<region>
hivel=127
key=B4
lovel=85
sample=Horn_staccato_FF_B4_RR1.opus
</region>

<region>
hivel=127
key=C#3
lovel=85
sample=Horn_staccato_FF_C#3_RR1.opus
</region>

<region>
hivel=127
key=C#4
lovel=85
sample=Horn_staccato_FF_C#4_RR1.opus
</region>

<region>
hivel=127
key=C#5
lovel=85
sample=Horn_staccato_FF_C#5_RR1.opus
</region>

<region>
hivel=127
key=C3
lovel=85
sample=Horn_staccato_FF_C3_RR1.opus
</region>

<region>
hivel=127
key=C4
lovel=85
sample=Horn_staccato_FF_C4_RR1.opus
</region>

<region>
hivel=127
key=C5
lovel=85
sample=Horn_staccato_FF_C5_RR1.opus
</region>

<region>
hivel=127
key=D#3
lovel=85
sample=Horn_staccato_FF_D#3_RR1.opus
</region>

<region>
hivel=127
key=D#4
lovel=85
sample=Horn_staccato_FF_D#4_RR1.opus
</region>

<region>
hivel=127
key=D#5
lovel=85
sample=Horn_staccato_FF_D#5_RR1.opus
</region>

<region>
hivel=127
key=D3
lovel=85
sample=Horn_staccato_FF_D3_RR1.opus
</region>

<region>
hivel=127
key=D4
lovel=85
sample=Horn_staccato_FF_D4_RR1.opus
</region>

<region>
hivel=127
key=D5
lovel=85
sample=Horn_staccato_FF_D5_RR1.opus
</region>

<region>
hivel=127
key=E3
lovel=85
sample=Horn_staccato_FF_E3_RR1.opus
</region>

<region>
hivel=127
key=E4
lovel=85
sample=Horn_staccato_FF_E4_RR1.opus
</region>

<region>
hivel=127
key=E5
lovel=85
sample=Horn_staccato_FF_E5_RR1.opus
</region>

<region>
hivel=127
key=F#2
lovel=85
sample=Horn_staccato_FF_F#2_RR1.opus
</region>

<region>
hivel=127
key=F#3
lovel=85
sample=Horn_staccato_FF_F#3_RR1.opus
</region>

<region>
hivel=127
key=F#4
lovel=85
sample=Horn_staccato_FF_F#4_RR1.opus
</region>

<region>
hikey=F2
hivel=127
lokey=C2
lovel=85
pitch_keycenter=F2
sample=Horn_staccato_FF_F2_RR1.opus
</region>

<region>
hivel=127
key=F3
lovel=85
sample=Horn_staccato_FF_F3_RR1.opus
</region>

<region>
hivel=127
key=F4
lovel=85
sample=Horn_staccato_FF_F4_RR1.opus
</region>

<region>
hikey=A#5
hivel=127
lokey=F5
lovel=85
pitch_keycenter=F5
sample=Horn_staccato_FF_F5_RR1.opus
</region>

<region>
hivel=127
key=G#2
lovel=85
sample=Horn_staccato_FF_G#2_RR1.opus
</region>

<region>
hivel=127
key=G#3
lovel=85
sample=Horn_staccato_FF_G#3_RR1.opus
</region>

<region>
hivel=127
key=G#4
lovel=85
sample=Horn_staccato_FF_G#4_RR1.opus
</region>

<region>
hivel=127
key=G2
lovel=85
sample=Horn_staccato_FF_G2_RR1.opus
</region>

<region>
hivel=127
key=G3
lovel=85
sample=Horn_staccato_FF_G3_RR1.opus
</region>

<region>
hivel=127
key=G4
lovel=85
sample=Horn_staccato_FF_G4_RR1.opus
</region>

<region>
hivel=84
key=A#2
lovel=43
sample=Horn_staccato_MF_A#2_RR1.opus
</region>

<region>
hivel=84
key=A#3
lovel=43
sample=Horn_staccato_MF_A#3_RR1.opus
</region>

<region>
hivel=84
key=A#4
lovel=43
sample=Horn_staccato_MF_A#4_RR1.opus
</region>

<region>
hivel=84
key=A2
lovel=43
sample=Horn_staccato_MF_A2_RR1.opus
</region>

<region>
hivel=84
key=A3
lovel=43
sample=Horn_staccato_MF_A3_RR1.opus
</region>

<region>
hivel=84
key=A4
lovel=43
sample=Horn_staccato_MF_A4_RR1.opus
</region>

<region>
hivel=84
key=B2
lovel=43
sample=Horn_staccato_MF_B2_RR1.opus
</region>

<region>
hivel=84
key=B3
lovel=43
sample=Horn_staccato_MF_B3_RR1.opus
</region>

<region>
hivel=84
key=B4
lovel=43
sample=Horn_staccato_MF_B4_RR1.opus
</region>

<region>
hivel=84
key=C#3
lovel=43
sample=Horn_staccato_MF_C#3_RR1.opus
</region>

<region>
hivel=84
key=C#4
lovel=43
sample=Horn_staccato_MF_C#4_RR1.opus
</region>

<region>
hivel=84
key=C#5
lovel=43
sample=Horn_staccato_MF_C#5_RR1.opus
</region>

<region>
hivel=84
key=C3
lovel=43
sample=Horn_staccato_MF_C3_RR1.opus
</region>

<region>
hivel=84
key=C4
lovel=43
sample=Horn_staccato_MF_C4_RR1.opus
</region>

<region>
hivel=84
key=C5
lovel=43
sample=Horn_staccato_MF_C5_RR1.opus
</region>

<region>
hivel=84
key=D#3
lovel=43
sample=Horn_staccato_MF_D#3_RR1.opus
</region>

<region>
hivel=84
key=D#4
lovel=43
sample=Horn_staccato_MF_D#4_RR1.opus
</region>

<region>
hivel=84
key=D#5
lovel=43
sample=Horn_staccato_MF_D#5_RR1.opus
</region>

<region>
hivel=84
key=D3
lovel=43
sample=Horn_staccato_MF_D3_RR1.opus
</region>

<region>
hivel=84
key=D4
lovel=43
sample=Horn_staccato_MF_D4_RR1.opus
</region>

<region>
hivel=84
key=D5
lovel=43
sample=Horn_staccato_MF_D5_RR1.opus
</region>

<region>
hivel=84
key=E3
lovel=43
sample=Horn_staccato_MF_E3_RR1.opus
</region>

<region>
hivel=84
key=E4
lovel=43
sample=Horn_staccato_MF_E4_RR1.opus
</region>

<region>
hivel=84
key=E5
lovel=43
sample=Horn_staccato_MF_E5_RR1.opus
</region>

<region>
hivel=84
key=F#2
lovel=43
sample=Horn_staccato_MF_F#2_RR1.opus
</region>

<region>
hivel=84
key=F#3
lovel=43
sample=Horn_staccato_MF_F#3_RR1.opus
</region>

<region>
hivel=84
key=F#4
lovel=43
sample=Horn_staccato_MF_F#4_RR1.opus
</region>

<region>
hikey=F2
hivel=84
lokey=C2
lovel=43
pitch_keycenter=F2
sample=Horn_staccato_MF_F2_RR1.opus
</region>

<region>
hivel=84
key=F3
lovel=43
sample=Horn_staccato_MF_F3_RR1.opus
</region>

<region>
hivel=84
key=F4
lovel=43
sample=Horn_staccato_MF_F4_RR1.opus
</region>

<region>
hikey=A#5
hivel=84
lokey=F5
lovel=43
pitch_keycenter=F5
sample=Horn_staccato_MF_F5_RR1.opus
</region>

<region>
hivel=84
key=G#2
lovel=43
sample=Horn_staccato_MF_G#2_RR1.opus
</region>

<region>
hivel=84
key=G#3
lovel=43
sample=Horn_staccato_MF_G#3_RR1.opus
</region>

<region>
hivel=84
key=G#4
lovel=43
sample=Horn_staccato_MF_G#4_RR1.opus
</region>

<region>
hivel=84
key=G2
lovel=43
sample=Horn_staccato_MF_G2_RR1.opus
</region>

<region>
hivel=84
key=G3
lovel=43
sample=Horn_staccato_MF_G3_RR1.opus
</region>

<region>
hivel=84
key=G4
lovel=43
sample=Horn_staccato_MF_G4_RR1.opus
</region>

<region>
hivel=42
key=A#2
lovel=0
sample=Horn_staccato_PP_A#2_RR1.opus
</region>

<region>
hivel=42
key=A#3
lovel=0
sample=Horn_staccato_PP_A#3_RR1.opus
</region>

<region>
hivel=42
key=A#4
lovel=0
sample=Horn_staccato_PP_A#4_RR1.opus
</region>

<region>
hivel=42
key=A2
lovel=0
sample=Horn_staccato_PP_A2_RR1.opus
</region>

<region>
hivel=42
key=A3
lovel=0
sample=Horn_staccato_PP_A3_RR1.opus
</region>

<region>
hivel=42
key=A4
lovel=0
sample=Horn_staccato_PP_A4_RR1.opus
</region>

<region>
hivel=42
key=B2
lovel=0
sample=Horn_staccato_PP_B2_RR1.opus
</region>

<region>
hivel=42
key=B3
lovel=0
sample=Horn_staccato_PP_B3_RR1.opus
</region>

<region>
hivel=42
key=B4
lovel=0
sample=Horn_staccato_PP_B4_RR1.opus
</region>

<region>
hivel=42
key=C#3
lovel=0
sample=Horn_staccato_PP_C#3_RR1.opus
</region>

<region>
hivel=42
key=C#4
lovel=0
sample=Horn_staccato_PP_C#4_RR1.opus
</region>

<region>
hivel=42
key=C#5
lovel=0
sample=Horn_staccato_PP_C#5_RR1.opus
</region>

<region>
hivel=42
key=C3
lovel=0
sample=Horn_staccato_PP_C3_RR1.opus
</region>

<region>
hivel=42
key=C4
lovel=0
sample=Horn_staccato_PP_C4_RR1.opus
</region>

<region>
hivel=42
key=C5
lovel=0
sample=Horn_staccato_PP_C5_RR1.opus
</region>

<region>
hivel=42
key=D#3
lovel=0
sample=Horn_staccato_PP_D#3_RR1.opus
</region>

<region>
hivel=42
key=D#4
lovel=0
sample=Horn_staccato_PP_D#4_RR1.opus
</region>

<region>
hivel=42
key=D#5
lovel=0
sample=Horn_staccato_PP_D#5_RR1.opus
</region>

<region>
hivel=42
key=D3
lovel=0
sample=Horn_staccato_PP_D3_RR1.opus
</region>

<region>
hivel=42
key=D4
lovel=0
sample=Horn_staccato_PP_D4_RR1.opus
</region>

<region>
hivel=42
key=D5
lovel=0
sample=Horn_staccato_PP_D5_RR1.opus
</region>

<region>
hivel=42
key=E3
lovel=0
sample=Horn_staccato_PP_E3_RR1.opus
</region>

<region>
hivel=42
key=E4
lovel=0
sample=Horn_staccato_PP_E4_RR1.opus
</region>

<region>
hivel=42
key=E5
lovel=0
sample=Horn_staccato_PP_E5_RR1.opus
</region>

<region>
hivel=42
key=F#2
lovel=0
sample=Horn_staccato_PP_F#2_RR1.opus
</region>

<region>
hivel=42
key=F#3
lovel=0
sample=Horn_staccato_PP_F#3_RR1.opus
</region>

<region>
hivel=42
key=F#4
lovel=0
sample=Horn_staccato_PP_F#4_RR1.opus
</region>

<region>
hikey=F2
hivel=42
lokey=C2
lovel=0
pitch_keycenter=F2
sample=Horn_staccato_PP_F2_RR1.opus
</region>

<region>
hivel=42
key=F3
lovel=0
sample=Horn_staccato_PP_F3_RR1.opus
</region>

<region>
hivel=42
key=F4
lovel=0
sample=Horn_staccato_PP_F4_RR1.opus
</region>

<region>
hikey=A#5
hivel=42
lokey=F5
lovel=0
pitch_keycenter=F5
sample=Horn_staccato_PP_F5_RR1.opus
</region>

<region>
hivel=42
key=G#2
lovel=0
sample=Horn_staccato_PP_G#2_RR1.opus
</region>

<region>
hivel=42
key=G#3
lovel=0
sample=Horn_staccato_PP_G#3_RR1.opus
</region>

<region>
hivel=42
key=G#4
lovel=0
sample=Horn_staccato_PP_G#4_RR1.opus
</region>

<region>
hivel=42
key=G2
lovel=0
sample=Horn_staccato_PP_G2_RR1.opus
</region>

<region>
hivel=42
key=G3
lovel=0
sample=Horn_staccato_PP_G3_RR1.opus
</region>

<region>
hivel=42
key=G4
lovel=0
sample=Horn_staccato_PP_G4_RR1.opus
</region>
</group>

<group>
group_label=RR2
seq_length=4
seq_position=2

<region>
hivel=127
key=A#2
lovel=85
sample=Horn_staccato_FF_A#2_RR2.opus
</region>

<region>
hivel=127
key=A#3
lovel=85
sample=Horn_staccato_FF_A#3_RR2.opus
</region>

<region>
hivel=127
key=A#4
lovel=85
sample=Horn_staccato_FF_A#4_RR2.opus
</region>

<region>
hivel=127
key=A2
lovel=85
sample=Horn_staccato_FF_A2_RR2.opus
</region>

<region>
hivel=127
key=A3
lovel=85
sample=Horn_staccato_FF_A3_RR2.opus
</region>

<region>
hivel=127
key=A4
lovel=85
sample=Horn_staccato_FF_A4_RR2.opus
</region>

<region>
hivel=127
key=B2
lovel=85
sample=Horn_staccato_FF_B2_RR2.opus
</region>

<region>
hivel=127
key=B3
lovel=85
sample=Horn_staccato_FF_B3_RR2.opus
</region>

<region>
hivel=127
key=B4
lovel=85
sample=Horn_staccato_FF_B4_RR2.opus
</region>

<region>
hivel=127
key=C#3
lovel=85
sample=Horn_staccato_FF_C#3_RR2.opus
</region>

<region>
hivel=127
key=C#4
lovel=85
sample=Horn_staccato_FF_C#4_RR2.opus
</region>

<region>
hivel=127
key=C#5
lovel=85
sample=Horn_staccato_FF_C#5_RR2.opus
</region>

<region>
hivel=127
key=C3
lovel=85
sample=Horn_staccato_FF_C3_RR2.opus
</region>

<region>
hivel=127
key=C4
lovel=85
sample=Horn_staccato_FF_C4_RR2.opus
</region>

<region>
hivel=127
key=C5
lovel=85
sample=Horn_staccato_FF_C5_RR2.opus
</region>

<region>
hivel=127
key=D#3
lovel=85
sample=Horn_staccato_FF_D#3_RR2.opus
</region>

<region>
hivel=127
key=D#4
lovel=85
sample=Horn_staccato_FF_D#4_RR2.opus
</region>

<region>
hivel=127
key=D#5
lovel=85
sample=Horn_staccato_FF_D#5_RR2.opus
</region>

<region>
hivel=127
key=D3
lovel=85
sample=Horn_staccato_FF_D3_RR2.opus
</region>

<region>
hivel=127
key=D4
lovel=85
sample=Horn_staccato_FF_D4_RR2.opus
</region>

<region>
hivel=127
key=D5
lovel=85
sample=Horn_staccato_FF_D5_RR2.opus
</region>

<region>
hivel=127
key=E3
lovel=85
sample=Horn_staccato_FF_E3_RR2.opus
</region>

<region>
hivel=127
key=E4
lovel=85
sample=Horn_staccato_FF_E4_RR2.opus
</region>

<region>
hivel=127
key=E5
lovel=85
sample=Horn_staccato_FF_E5_RR2.opus
</region>

<region>
hivel=127
key=F#2
lovel=85
sample=Horn_staccato_FF_F#2_RR2.opus
</region>

<region>
hivel=127
key=F#3
lovel=85
sample=Horn_staccato_FF_F#3_RR2.opus
</region>

<region>
hivel=127
key=F#4
lovel=85
sample=Horn_staccato_FF_F#4_RR2.opus
</region>

<region>
hikey=F2
hivel=127
lokey=C2
lovel=85
pitch_keycenter=F2
sample=Horn_staccato_FF_F2_RR2.opus
</region>

<region>
hivel=127
key=F3
lovel=85
sample=Horn_staccato_FF_F3_RR2.opus
</region>

<region>
hivel=127
key=F4
lovel=85
sample=Horn_staccato_FF_F4_RR2.opus
</region>

<region>
hikey=A#5
hivel=127
lokey=F5
lovel=85
pitch_keycenter=F5
sample=Horn_staccato_FF_F5_RR2.opus
</region>

<region>
hivel=127
key=G#2
lovel=85
sample=Horn_staccato_FF_G#2_RR2.opus
</region>

<region>
hivel=127
key=G#3
lovel=85
sample=Horn_staccato_FF_G#3_RR2.opus
</region>

<region>
hivel=127
key=G#4
lovel=85
sample=Horn_staccato_FF_G#4_RR2.opus
</region>

<region>
hivel=127
key=G2
lovel=85
sample=Horn_staccato_FF_G2_RR2.opus
</region>

<region>
hivel=127
key=G3
lovel=85
sample=Horn_staccato_FF_G3_RR2.opus
</region>

<region>
hivel=127
key=G4
lovel=85
sample=Horn_staccato_FF_G4_RR2.opus
</region>

<region>
hivel=84
key=A#2
lovel=43
sample=Horn_staccato_MF_A#2_RR2.opus
</region>

<region>
hivel=84
key=A#3
lovel=43
sample=Horn_staccato_MF_A#3_RR2.opus
</region>

<region>
hivel=84
key=A#4
lovel=43
sample=Horn_staccato_MF_A#4_RR2.opus
</region>

<region>
hivel=84
key=A2
lovel=43
sample=Horn_staccato_MF_A2_RR2.opus
</region>

<region>
hivel=84
key=A3
lovel=43
sample=Horn_staccato_MF_A3_RR2.opus
</region>

<region>
hivel=84
key=A4
lovel=43
sample=Horn_staccato_MF_A4_RR2.opus
</region>

<region>
hivel=84
key=B2
lovel=43
sample=Horn_staccato_MF_B2_RR2.opus
</region>

<region>
hivel=84
key=B3
lovel=43
sample=Horn_staccato_MF_B3_RR2.opus
</region>

<region>
hivel=84
key=B4
lovel=43
sample=Horn_staccato_MF_B4_RR2.opus
</region>

<region>
hivel=84
key=C#3
lovel=43
sample=Horn_staccato_MF_C#3_RR2.opus
</region>

<region>
hivel=84
key=C#4
lovel=43
sample=Horn_staccato_MF_C#4_RR2.opus
</region>

<region>
hivel=84
key=C#5
lovel=43
sample=Horn_staccato_MF_C#5_RR2.opus
</region>

<region>
hivel=84
key=C3
lovel=43
sample=Horn_staccato_MF_C3_RR2.opus
</region>

<region>
hivel=84
key=C4
lovel=43
sample=Horn_staccato_MF_C4_RR2.opus
</region>

<region>
hivel=84
key=C5
lovel=43
sample=Horn_staccato_MF_C5_RR2.opus
</region>

<region>
hivel=84
key=D#3
lovel=43
sample=Horn_staccato_MF_D#3_RR2.opus
</region>

<region>
hivel=84
key=D#4
lovel=43
sample=Horn_staccato_MF_D#4_RR2.opus
</region>

<region>
hivel=84
key=D#5
lovel=43
sample=Horn_staccato_MF_D#5_RR2.opus
</region>

<region>
hivel=84
key=D3
lovel=43
sample=Horn_staccato_MF_D3_RR2.opus
</region>

<region>
hivel=84
key=D4
lovel=43
sample=Horn_staccato_MF_D4_RR2.opus
</region>

<region>
hivel=84
key=D5
lovel=43
sample=Horn_staccato_MF_D5_RR2.opus
</region>

<region>
hivel=84
key=E3
lovel=43
sample=Horn_staccato_MF_E3_RR2.opus
</region>

<region>
hivel=84
key=E4
lovel=43
sample=Horn_staccato_MF_E4_RR2.opus
</region>

<region>
hivel=84
key=E5
lovel=43
sample=Horn_staccato_MF_E5_RR2.opus
</region>

<region>
hivel=84
key=F#2
lovel=43
sample=Horn_staccato_MF_F#2_RR2.opus
</region>

<region>
hivel=84
key=F#3
lovel=43
sample=Horn_staccato_MF_F#3_RR2.opus
</region>

<region>
hivel=84
key=F#4
lovel=43
sample=Horn_staccato_MF_F#4_RR2.opus
</region>

<region>
hikey=F2
hivel=84
lokey=C2
lovel=43
pitch_keycenter=F2
sample=Horn_staccato_MF_F2_RR2.opus
</region>

<region>
hivel=84
key=F3
lovel=43
sample=Horn_staccato_MF_F3_RR2.opus
</region>

<region>
hivel=84
key=F4
lovel=43
sample=Horn_staccato_MF_F4_RR2.opus
</region>

<region>
hikey=A#5
hivel=84
lokey=F5
lovel=43
pitch_keycenter=F5
sample=Horn_staccato_MF_F5_RR2.opus
</region>

<region>
hivel=84
key=G#2
lovel=43
sample=Horn_staccato_MF_G#2_RR2.opus
</region>

<region>
hivel=84
key=G#3
lovel=43
sample=Horn_staccato_MF_G#3_RR2.opus
</region>

<region>
hivel=84
key=G#4
lovel=43
sample=Horn_staccato_MF_G#4_RR2.opus
</region>

<region>
hivel=84
key=G2
lovel=43
sample=Horn_staccato_MF_G2_RR2.opus
</region>

<region>
hivel=84
key=G3
lovel=43
sample=Horn_staccato_MF_G3_RR2.opus
</region>

<region>
hivel=84
key=G4
lovel=43
sample=Horn_staccato_MF_G4_RR2.opus
</region>

<region>
hivel=42
key=A#2
lovel=0
sample=Horn_staccato_PP_A#2_RR2.opus
</region>

<region>
hivel=42
key=A#3
lovel=0
sample=Horn_staccato_PP_A#3_RR2.opus
</region>

<region>
hivel=42
key=A#4
lovel=0
sample=Horn_staccato_PP_A#4_RR2.opus
</region>

<region>
hivel=42
key=A2
lovel=0
sample=Horn_staccato_PP_A2_RR2.opus
</region>

<region>
hivel=42
key=A3
lovel=0
sample=Horn_staccato_PP_A3_RR2.opus
</region>

<region>
hivel=42
key=A4
lovel=0
sample=Horn_staccato_PP_A4_RR2.opus
</region>

<region>
hivel=42
key=B2
lovel=0
sample=Horn_staccato_PP_B2_RR2.opus
</region>

<region>
hivel=42
key=B3
lovel=0
sample=Horn_staccato_PP_B3_RR2.opus
</region>

<region>
hivel=42
key=B4
lovel=0
sample=Horn_staccato_PP_B4_RR2.opus
</region>

<region>
hivel=42
key=C#3
lovel=0
sample=Horn_staccato_PP_C#3_RR2.opus
</region>

<region>
hivel=42
key=C#4
lovel=0
sample=Horn_staccato_PP_C#4_RR2.opus
</region>

<region>
hivel=42
key=C#5
lovel=0
sample=Horn_staccato_PP_C#5_RR2.opus
</region>

<region>
hivel=42
key=C3
lovel=0
sample=Horn_staccato_PP_C3_RR2.opus
</region>

<region>
hivel=42
key=C4
lovel=0
sample=Horn_staccato_PP_C4_RR2.opus
</region>

<region>
hivel=42
key=C5
lovel=0
sample=Horn_staccato_PP_C5_RR2.opus
</region>

<region>
hivel=42
key=D#3
lovel=0
sample=Horn_staccato_PP_D#3_RR2.opus
</region>

<region>
hivel=42
key=D#4
lovel=0
sample=Horn_staccato_PP_D#4_RR2.opus
</region>

<region>
hivel=42
key=D#5
lovel=0
sample=Horn_staccato_PP_D#5_RR2.opus
</region>

<region>
hivel=42
key=D3
lovel=0
sample=Horn_staccato_PP_D3_RR2.opus
</region>

<region>
hivel=42
key=D4
lovel=0
sample=Horn_staccato_PP_D4_RR2.opus
</region>

<region>
hivel=42
key=D5
lovel=0
sample=Horn_staccato_PP_D5_RR2.opus
</region>

<region>
hivel=42
key=E3
lovel=0
sample=Horn_staccato_PP_E3_RR2.opus
</region>

<region>
hivel=42
key=E4
lovel=0
sample=Horn_staccato_PP_E4_RR2.opus
</region>

<region>
hivel=42
key=E5
lovel=0
sample=Horn_staccato_PP_E5_RR2.opus
</region>

<region>
hivel=42
key=F#2
lovel=0
sample=Horn_staccato_PP_F#2_RR2.opus
</region>

<region>
hivel=42
key=F#3
lovel=0
sample=Horn_staccato_PP_F#3_RR2.opus
</region>

<region>
hivel=42
key=F#4
lovel=0
sample=Horn_staccato_PP_F#4_RR2.opus
</region>

<region>
hikey=F2
hivel=42
lokey=C2
lovel=0
pitch_keycenter=F2
sample=Horn_staccato_PP_F2_RR2.opus
</region>

<region>
hivel=42
key=F3
lovel=0
sample=Horn_staccato_PP_F3_RR2.opus
</region>

<region>
hivel=42
key=F4
lovel=0
sample=Horn_staccato_PP_F4_RR2.opus
</region>

<region>
hikey=A#5
hivel=42
lokey=F5
lovel=0
pitch_keycenter=F5
sample=Horn_staccato_PP_F5_RR2.opus
</region>

<region>
hivel=42
key=G#2
lovel=0
sample=Horn_staccato_PP_G#2_RR2.opus
</region>

<region>
hivel=42
key=G#3
lovel=0
sample=Horn_staccato_PP_G#3_RR2.opus
</region>

<region>
hivel=42
key=G#4
lovel=0
sample=Horn_staccato_PP_G#4_RR2.opus
</region>

<region>
hivel=42
key=G2
lovel=0
sample=Horn_staccato_PP_G2_RR2.opus
</region>

<region>
hivel=42
key=G3
lovel=0
sample=Horn_staccato_PP_G3_RR2.opus
</region>

<region>
hivel=42
key=G4
lovel=0
sample=Horn_staccato_PP_G4_RR2.opus
</region>
</group>

<group>
group_label=RR3
seq_length=4
seq_position=3

<region>
hivel=127
key=A#2
lovel=85
sample=Horn_staccato_FF_A#2_RR3.opus
</region>

<region>
hivel=127
key=A#3
lovel=85
sample=Horn_staccato_FF_A#3_RR3.opus
</region>

<region>
hivel=127
key=A#4
lovel=85
sample=Horn_staccato_FF_A#4_RR3.opus
</region>

<region>
hivel=127
key=A2
lovel=85
sample=Horn_staccato_FF_A2_RR3.opus
</region>

<region>
hivel=127
key=A3
lovel=85
sample=Horn_staccato_FF_A3_RR3.opus
</region>

<region>
hivel=127
key=A4
lovel=85
sample=Horn_staccato_FF_A4_RR3.opus
</region>

<region>
hivel=127
key=B2
lovel=85
sample=Horn_staccato_FF_B2_RR3.opus
</region>

<region>
hivel=127
key=B3
lovel=85
sample=Horn_staccato_FF_B3_RR3.opus
</region>

<region>
hivel=127
key=B4
lovel=85
sample=Horn_staccato_FF_B4_RR3.opus
</region>

<region>
hivel=127
key=C#3
lovel=85
sample=Horn_staccato_FF_C#3_RR3.opus
</region>

<region>
hivel=127
key=C#4
lovel=85
sample=Horn_staccato_FF_C#4_RR3.opus
</region>

<region>
hivel=127
key=C#5
lovel=85
sample=Horn_staccato_FF_C#5_RR3.opus
</region>

<region>
hivel=127
key=C3
lovel=85
sample=Horn_staccato_FF_C3_RR3.opus
</region>

<region>
hivel=127
key=C4
lovel=85
sample=Horn_staccato_FF_C4_RR3.opus
</region>

<region>
hivel=127
key=C5
lovel=85
sample=Horn_staccato_FF_C5_RR3.opus
</region>

<region>
hivel=127
key=D#3
lovel=85
sample=Horn_staccato_FF_D#3_RR3.opus
</region>

<region>
hivel=127
key=D#4
lovel=85
sample=Horn_staccato_FF_D#4_RR3.opus
</region>

<region>
hivel=127
key=D#5
lovel=85
sample=Horn_staccato_FF_D#5_RR3.opus
</region>

<region>
hivel=127
key=D3
lovel=85
sample=Horn_staccato_FF_D3_RR3.opus
</region>

<region>
hivel=127
key=D4
lovel=85
sample=Horn_staccato_FF_D4_RR3.opus
</region>

<region>
hivel=127
key=D5
lovel=85
sample=Horn_staccato_FF_D5_RR3.opus
</region>

<region>
hivel=127
key=E3
lovel=85
sample=Horn_staccato_FF_E3_RR3.opus
</region>

<region>
hivel=127
key=E4
lovel=85
sample=Horn_staccato_FF_E4_RR3.opus
</region>

<region>
hivel=127
key=E5
lovel=85
sample=Horn_staccato_FF_E5_RR3.opus
</region>

<region>
hivel=127
key=F#2
lovel=85
sample=Horn_staccato_FF_F#2_RR3.opus
</region>

<region>
hivel=127
key=F#3
lovel=85
sample=Horn_staccato_FF_F#3_RR3.opus
</region>

<region>
hivel=127
key=F#4
lovel=85
sample=Horn_staccato_FF_F#4_RR3.opus
</region>

<region>
hikey=F2
hivel=127
lokey=C2
lovel=85
pitch_keycenter=F2
sample=Horn_staccato_FF_F2_RR3.opus
</region>

<region>
hivel=127
key=F3
lovel=85
sample=Horn_staccato_FF_F3_RR3.opus
</region>

<region>
hivel=127
key=F4
lovel=85
sample=Horn_staccato_FF_F4_RR3.opus
</region>

<region>
hikey=A#5
hivel=127
lokey=F5
lovel=85
pitch_keycenter=F5
sample=Horn_staccato_FF_F5_RR3.opus
</region>

<region>
hivel=127
key=G#2
lovel=85
sample=Horn_staccato_FF_G#2_RR3.opus
</region>

<region>
hivel=127
key=G#3
lovel=85
sample=Horn_staccato_FF_G#3_RR3.opus
</region>

<region>
hivel=127
key=G#4
lovel=85
sample=Horn_staccato_FF_G#4_RR3.opus
</region>

<region>
hivel=127
key=G2
lovel=85
sample=Horn_staccato_FF_G2_RR3.opus
</region>

<region>
hivel=127
key=G3
lovel=85
sample=Horn_staccato_FF_G3_RR3.opus
</region>

<region>
hivel=127
key=G4
lovel=85
sample=Horn_staccato_FF_G4_RR3.opus
</region>

<region>
hivel=84
key=A#2
lovel=43
sample=Horn_staccato_MF_A#2_RR3.opus
</region>

<region>
hivel=84
key=A#3
lovel=43
sample=Horn_staccato_MF_A#3_RR3.opus
</region>

<region>
hivel=84
key=A#4
lovel=43
sample=Horn_staccato_MF_A#4_RR3.opus
</region>

<region>
hivel=84
key=A2
lovel=43
sample=Horn_staccato_MF_A2_RR3.opus
</region>

<region>
hivel=84
key=A3
lovel=43
sample=Horn_staccato_MF_A3_RR3.opus
</region>

<region>
hivel=84
key=A4
lovel=43
sample=Horn_staccato_MF_A4_RR3.opus
</region>

<region>
hivel=84
key=B2
lovel=43
sample=Horn_staccato_MF_B2_RR3.opus
</region>

<region>
hivel=84
key=B3
lovel=43
sample=Horn_staccato_MF_B3_RR3.opus
</region>

<region>
hivel=84
key=B4
lovel=43
sample=Horn_staccato_MF_B4_RR3.opus
</region>

<region>
hivel=84
key=C#3
lovel=43
sample=Horn_staccato_MF_C#3_RR3.opus
</region>

<region>
hivel=84
key=C#4
lovel=43
sample=Horn_staccato_MF_C#4_RR3.opus
</region>

<region>
hivel=84
key=C#5
lovel=43
sample=Horn_staccato_MF_C#5_RR3.opus
</region>

<region>
hivel=84
key=C3
lovel=43
sample=Horn_staccato_MF_C3_RR3.opus
</region>

<region>
hivel=84
key=C4
lovel=43
sample=Horn_staccato_MF_C4_RR3.opus
</region>

<region>
hivel=84
key=C5
lovel=43
sample=Horn_staccato_MF_C5_RR3.opus
</region>

<region>
hivel=84
key=D#3
lovel=43
sample=Horn_staccato_MF_D#3_RR3.opus
</region>

<region>
hivel=84
key=D#4
lovel=43
sample=Horn_staccato_MF_D#4_RR3.opus
</region>

<region>
hivel=84
key=D#5
lovel=43
sample=Horn_staccato_MF_D#5_RR3.opus
</region>

<region>
hivel=84
key=D3
lovel=43
sample=Horn_staccato_MF_D3_RR3.opus
</region>

<region>
hivel=84
key=D4
lovel=43
sample=Horn_staccato_MF_D4_RR3.opus
</region>

<region>
hivel=84
key=D5
lovel=43
sample=Horn_staccato_MF_D5_RR3.opus
</region>

<region>
hivel=84
key=E3
lovel=43
sample=Horn_staccato_MF_E3_RR3.opus
</region>

<region>
hivel=84
key=E4
lovel=43
sample=Horn_staccato_MF_E4_RR3.opus
</region>

<region>
hivel=84
key=E5
lovel=43
sample=Horn_staccato_MF_E5_RR3.opus
</region>

<region>
hivel=84
key=F#2
lovel=43
sample=Horn_staccato_MF_F#2_RR3.opus
</region>

<region>
hivel=84
key=F#3
lovel=43
sample=Horn_staccato_MF_F#3_RR3.opus
</region>

<region>
hivel=84
key=F#4
lovel=43
sample=Horn_staccato_MF_F#4_RR3.opus
</region>

<region>
hikey=F2
hivel=84
lokey=C2
lovel=43
pitch_keycenter=F2
sample=Horn_staccato_MF_F2_RR3.opus
</region>

<region>
hivel=84
key=F3
lovel=43
sample=Horn_staccato_MF_F3_RR3.opus
</region>

<region>
hivel=84
key=F4
lovel=43
sample=Horn_staccato_MF_F4_RR3.opus
</region>

<region>
hikey=A#5
hivel=84
lokey=F5
lovel=43
pitch_keycenter=F5
sample=Horn_staccato_MF_F5_RR3.opus
</region>

<region>
hivel=84
key=G#2
lovel=43
sample=Horn_staccato_MF_G#2_RR3.opus
</region>

<region>
hivel=84
key=G#3
lovel=43
sample=Horn_staccato_MF_G#3_RR3.opus
</region>

<region>
hivel=84
key=G#4
lovel=43
sample=Horn_staccato_MF_G#4_RR3.opus
</region>

<region>
hivel=84
key=G2
lovel=43
sample=Horn_staccato_MF_G2_RR3.opus
</region>

<region>
hivel=84
key=G3
lovel=43
sample=Horn_staccato_MF_G3_RR3.opus
</region>

<region>
hivel=84
key=G4
lovel=43
sample=Horn_staccato_MF_G4_RR3.opus
</region>

<region>
hivel=42
key=A#2
lovel=0
sample=Horn_staccato_PP_A#2_RR3.opus
</region>

<region>
hivel=42
key=A#3
lovel=0
sample=Horn_staccato_PP_A#3_RR3.opus
</region>

<region>
hivel=42
key=A#4
lovel=0
sample=Horn_staccato_PP_A#4_RR3.opus
</region>

<region>
hivel=42
key=A2
lovel=0
sample=Horn_staccato_PP_A2_RR3.opus
</region>

<region>
hivel=42
key=A3
lovel=0
sample=Horn_staccato_PP_A3_RR3.opus
</region>

<region>
hivel=42
key=A4
lovel=0
sample=Horn_staccato_PP_A4_RR3.opus
</region>

<region>
hivel=42
key=B2
lovel=0
sample=Horn_staccato_PP_B2_RR3.opus
</region>

<region>
hivel=42
key=B3
lovel=0
sample=Horn_staccato_PP_B3_RR3.opus
</region>

<region>
hivel=42
key=B4
lovel=0
sample=Horn_staccato_PP_B4_RR3.opus
</region>

<region>
hivel=42
key=C#3
lovel=0
sample=Horn_staccato_PP_C#3_RR3.opus
</region>

<region>
hivel=42
key=C#4
lovel=0
sample=Horn_staccato_PP_C#4_RR3.opus
</region>

<region>
hivel=42
key=C#5
lovel=0
sample=Horn_staccato_PP_C#5_RR3.opus
</region>

<region>
hivel=42
key=C3
lovel=0
sample=Horn_staccato_PP_C3_RR3.opus
</region>

<region>
hivel=42
key=C4
lovel=0
sample=Horn_staccato_PP_C4_RR3.opus
</region>

<region>
hivel=42
key=C5
lovel=0
sample=Horn_staccato_PP_C5_RR3.opus
</region>

<region>
hivel=42
key=D#3
lovel=0
sample=Horn_staccato_PP_D#3_RR3.opus
</region>

<region>
hivel=42
key=D#4
lovel=0
sample=Horn_staccato_PP_D#4_RR3.opus
</region>

<region>
hivel=42
key=D#5
lovel=0
sample=Horn_staccato_PP_D#5_RR3.opus
</region>

<region>
hivel=42
key=D3
lovel=0
sample=Horn_staccato_PP_D3_RR3.opus
</region>

<region>
hivel=42
key=D4
lovel=0
sample=Horn_staccato_PP_D4_RR3.opus
</region>

<region>
hivel=42
key=D5
lovel=0
sample=Horn_staccato_PP_D5_RR3.opus
</region>

<region>
hivel=42
key=E3
lovel=0
sample=Horn_staccato_PP_E3_RR3.opus
</region>

<region>
hivel=42
key=E4
lovel=0
sample=Horn_staccato_PP_E4_RR3.opus
</region>

<region>
hivel=42
key=E5
lovel=0
sample=Horn_staccato_PP_E5_RR3.opus
</region>

<region>
hivel=42
key=F#2
lovel=0
sample=Horn_staccato_PP_F#2_RR3.opus
</region>

<region>
hivel=42
key=F#3
lovel=0
sample=Horn_staccato_PP_F#3_RR3.opus
</region>

<region>
hivel=42
key=F#4
lovel=0
sample=Horn_staccato_PP_F#4_RR3.opus
</region>

<region>
hikey=F2
hivel=42
lokey=C2
lovel=0
pitch_keycenter=F2
sample=Horn_staccato_PP_F2_RR3.opus
</region>

<region>
hivel=42
key=F3
lovel=0
sample=Horn_staccato_PP_F3_RR3.opus
</region>

<region>
hivel=42
key=F4
lovel=0
sample=Horn_staccato_PP_F4_RR3.opus
</region>

<region>
hikey=A#5
hivel=42
lokey=F5
lovel=0
pitch_keycenter=F5
sample=Horn_staccato_PP_F5_RR3.opus
</region>

<region>
hivel=42
key=G#2
lovel=0
sample=Horn_staccato_PP_G#2_RR3.opus
</region>

<region>
hivel=42
key=G#3
lovel=0
sample=Horn_staccato_PP_G#3_RR3.opus
</region>

<region>
hivel=42
key=G#4
lovel=0
sample=Horn_staccato_PP_G#4_RR3.opus
</region>

<region>
hivel=42
key=G2
lovel=0
sample=Horn_staccato_PP_G2_RR3.opus
</region>

<region>
hivel=42
key=G3
lovel=0
sample=Horn_staccato_PP_G3_RR3.opus
</region>

<region>
hivel=42
key=G4
lovel=0
sample=Horn_staccato_PP_G4_RR3.opus
</region>
</group>

<group>
group_label=RR4
seq_length=4
seq_position=4

<region>
hivel=127
key=A#2
lovel=85
sample=Horn_staccato_FF_A#2_RR4.opus
</region>

<region>
hivel=127
key=A#3
lovel=85
sample=Horn_staccato_FF_A#3_RR4.opus
</region>

<region>
hivel=127
key=A#4
lovel=85
sample=Horn_staccato_FF_A#4_RR4.opus
</region>

<region>
hivel=127
key=A2
lovel=85
sample=Horn_staccato_FF_A2_RR4.opus
</region>

<region>
hivel=127
key=A3
lovel=85
sample=Horn_staccato_FF_A3_RR4.opus
</region>

<region>
hivel=127
key=A4
lovel=85
sample=Horn_staccato_FF_A4_RR4.opus
</region>

<region>
hivel=127
key=B2
lovel=85
sample=Horn_staccato_FF_B2_RR4.opus
</region>

<region>
hivel=127
key=B3
lovel=85
sample=Horn_staccato_FF_B3_RR4.opus
</region>

<region>
hivel=127
key=B4
lovel=85
sample=Horn_staccato_FF_B4_RR4.opus
</region>

<region>
hivel=127
key=C#3
lovel=85
sample=Horn_staccato_FF_C#3_RR4.opus
</region>

<region>
hivel=127
key=C#4
lovel=85
sample=Horn_staccato_FF_C#4_RR4.opus
</region>

<region>
hivel=127
key=C#5
lovel=85
sample=Horn_staccato_FF_C#5_RR4.opus
</region>

<region>
hivel=127
key=C3
lovel=85
sample=Horn_staccato_FF_C3_RR4.opus
</region>

<region>
hivel=127
key=C4
lovel=85
sample=Horn_staccato_FF_C4_RR4.opus
</region>

<region>
hivel=127
key=C5
lovel=85
sample=Horn_staccato_FF_C5_RR4.opus
</region>

<region>
hivel=127
key=D#3
lovel=85
sample=Horn_staccato_FF_D#3_RR4.opus
</region>

<region>
hivel=127
key=D#4
lovel=85
sample=Horn_staccato_FF_D#4_RR4.opus
</region>

<region>
hivel=127
key=D#5
lovel=85
sample=Horn_staccato_FF_D#5_RR4.opus
</region>

<region>
hivel=127
key=D3
lovel=85
sample=Horn_staccato_FF_D3_RR4.opus
</region>

<region>
hivel=127
key=D4
lovel=85
sample=Horn_staccato_FF_D4_RR4.opus
</region>

<region>
hivel=127
key=D5
lovel=85
sample=Horn_staccato_FF_D5_RR4.opus
</region>

<region>
hivel=127
key=E3
lovel=85
sample=Horn_staccato_FF_E3_RR4.opus
</region>

<region>
hivel=127
key=E4
lovel=85
sample=Horn_staccato_FF_E4_RR4.opus
</region>

<region>
hivel=127
key=E5
lovel=85
sample=Horn_staccato_FF_E5_RR4.opus
</region>

<region>
hivel=127
key=F#2
lovel=85
sample=Horn_staccato_FF_F#2_RR4.opus
</region>

<region>
hivel=127
key=F#3
lovel=85
sample=Horn_staccato_FF_F#3_RR4.opus
</region>

<region>
hivel=127
key=F#4
lovel=85
sample=Horn_staccato_FF_F#4_RR4.opus
</region>

<region>
hikey=F2
hivel=127
lokey=C2
lovel=85
pitch_keycenter=F2
sample=Horn_staccato_FF_F2_RR4.opus
</region>

<region>
hivel=127
key=F3
lovel=85
sample=Horn_staccato_FF_F3_RR4.opus
</region>

<region>
hivel=127
key=F4
lovel=85
sample=Horn_staccato_FF_F4_RR4.opus
</region>

<region>
hikey=A#5
hivel=127
lokey=F5
lovel=85
pitch_keycenter=F5
sample=Horn_staccato_FF_F5_RR4.opus
</region>

<region>
hivel=127
key=G#2
lovel=85
sample=Horn_staccato_FF_G#2_RR4.opus
</region>

<region>
hivel=127
key=G#3
lovel=85
sample=Horn_staccato_FF_G#3_RR4.opus
</region>

<region>
hivel=127
key=G#4
lovel=85
sample=Horn_staccato_FF_G#4_RR4.opus
</region>

<region>
hivel=127
key=G2
lovel=85
sample=Horn_staccato_FF_G2_RR4.opus
</region>

<region>
hivel=127
key=G3
lovel=85
sample=Horn_staccato_FF_G3_RR4.opus
</region>

<region>
hivel=127
key=G4
lovel=85
sample=Horn_staccato_FF_G4_RR4.opus
</region>

<region>
hivel=84
key=A#2
lovel=43
sample=Horn_staccato_MF_A#2_RR4.opus
</region>

<region>
hivel=84
key=A#3
lovel=43
sample=Horn_staccato_MF_A#3_RR4.opus
</region>

<region>
hivel=84
key=A#4
lovel=43
sample=Horn_staccato_MF_A#4_RR4.opus
</region>

<region>
hivel=84
key=A2
lovel=43
sample=Horn_staccato_MF_A2_RR4.opus
</region>

<region>
hivel=84
key=A3
lovel=43
sample=Horn_staccato_MF_A3_RR4.opus
</region>

<region>
hivel=84
key=A4
lovel=43
sample=Horn_staccato_MF_A4_RR4.opus
</region>

<region>
hivel=84
key=B2
lovel=43
sample=Horn_staccato_MF_B2_RR4.opus
</region>

<region>
hivel=84
key=B3
lovel=43
sample=Horn_staccato_MF_B3_RR4.opus
</region>

<region>
hivel=84
key=B4
lovel=43
sample=Horn_staccato_MF_B4_RR4.opus
</region>

<region>
hivel=84
key=C#3
lovel=43
sample=Horn_staccato_MF_C#3_RR4.opus
</region>

<region>
hivel=84
key=C#4
lovel=43
sample=Horn_staccato_MF_C#4_RR4.opus
</region>

<region>
hivel=84
key=C#5
lovel=43
sample=Horn_staccato_MF_C#5_RR4.opus
</region>

<region>
hivel=84
key=C3
lovel=43
sample=Horn_staccato_MF_C3_RR4.opus
</region>

<region>
hivel=84
key=C4
lovel=43
sample=Horn_staccato_MF_C4_RR4.opus
</region>

<region>
hivel=84
key=C5
lovel=43
sample=Horn_staccato_MF_C5_RR4.opus
</region>

<region>
hivel=84
key=D#3
lovel=43
sample=Horn_staccato_MF_D#3_RR4.opus
</region>

<region>
hivel=84
key=D#4
lovel=43
sample=Horn_staccato_MF_D#4_RR4.opus
</region>

<region>
hivel=84
key=D#5
lovel=43
sample=Horn_staccato_MF_D#5_RR4.opus
</region>

<region>
hivel=84
key=D3
lovel=43
sample=Horn_staccato_MF_D3_RR4.opus
</region>

<region>
hivel=84
key=D4
lovel=43
sample=Horn_staccato_MF_D4_RR4.opus
</region>

<region>
hivel=84
key=D5
lovel=43
sample=Horn_staccato_MF_D5_RR4.opus
</region>

<region>
hivel=84
key=E3
lovel=43
sample=Horn_staccato_MF_E3_RR4.opus
</region>

<region>
hivel=84
key=E4
lovel=43
sample=Horn_staccato_MF_E4_RR4.opus
</region>

<region>
hivel=84
key=E5
lovel=43
sample=Horn_staccato_MF_E5_RR4.opus
</region>

<region>
hivel=84
key=F#2
lovel=43
sample=Horn_staccato_MF_F#2_RR4.opus
</region>

<region>
hivel=84
key=F#3
lovel=43
sample=Horn_staccato_MF_F#3_RR4.opus
</region>

<region>
hivel=84
key=F#4
lovel=43
sample=Horn_staccato_MF_F#4_RR4.opus
</region>

<region>
hikey=F2
hivel=84
lokey=C2
lovel=43
pitch_keycenter=F2
sample=Horn_staccato_MF_F2_RR4.opus
</region>

<region>
hivel=84
key=F3
lovel=43
sample=Horn_staccato_MF_F3_RR4.opus
</region>

<region>
hivel=84
key=F4
lovel=43
sample=Horn_staccato_MF_F4_RR4.opus
</region>

<region>
hikey=A#5
hivel=84
lokey=F5
lovel=43
pitch_keycenter=F5
sample=Horn_staccato_MF_F5_RR4.opus
</region>

<region>
hivel=84
key=G#2
lovel=43
sample=Horn_staccato_MF_G#2_RR4.opus
</region>

<region>
hivel=84
key=G#3
lovel=43
sample=Horn_staccato_MF_G#3_RR4.opus
</region>

<region>
hivel=84
key=G#4
lovel=43
sample=Horn_staccato_MF_G#4_RR4.opus
</region>

<region>
hivel=84
key=G2
lovel=43
sample=Horn_staccato_MF_G2_RR4.opus
</region>

<region>
hivel=84
key=G3
lovel=43
sample=Horn_staccato_MF_G3_RR4.opus
</region>

<region>
hivel=84
key=G4
lovel=43
sample=Horn_staccato_MF_G4_RR4.opus
</region>

<region>
hivel=42
key=A#2
lovel=0
sample=Horn_staccato_PP_A#2_RR4.opus
</region>

<region>
hivel=42
key=A#3
lovel=0
sample=Horn_staccato_PP_A#3_RR4.opus
</region>

<region>
hivel=42
key=A#4
lovel=0
sample=Horn_staccato_PP_A#4_RR4.opus
</region>

<region>
hivel=42
key=A2
lovel=0
sample=Horn_staccato_PP_A2_RR4.opus
</region>

<region>
hivel=42
key=A3
lovel=0
sample=Horn_staccato_PP_A3_RR4.opus
</region>

<region>
hivel=42
key=A4
lovel=0
sample=Horn_staccato_PP_A4_RR4.opus
</region>

<region>
hivel=42
key=B2
lovel=0
sample=Horn_staccato_PP_B2_RR4.opus
</region>

<region>
hivel=42
key=B3
lovel=0
sample=Horn_staccato_PP_B3_RR4.opus
</region>

<region>
hivel=42
key=B4
lovel=0
sample=Horn_staccato_PP_B4_RR4.opus
</region>

<region>
hivel=42
key=C#3
lovel=0
sample=Horn_staccato_PP_C#3_RR4.opus
</region>

<region>
hivel=42
key=C#4
lovel=0
sample=Horn_staccato_PP_C#4_RR4.opus
</region>

<region>
hivel=42
key=C#5
lovel=0
sample=Horn_staccato_PP_C#5_RR4.opus
</region>

<region>
hivel=42
key=C3
lovel=0
sample=Horn_staccato_PP_C3_RR4.opus
</region>

<region>
hivel=42
key=C4
lovel=0
sample=Horn_staccato_PP_C4_RR4.opus
</region>

<region>
hivel=42
key=C5
lovel=0
sample=Horn_staccato_PP_C5_RR4.opus
</region>

<region>
hivel=42
key=D#3
lovel=0
sample=Horn_staccato_PP_D#3_RR4.opus
</region>

<region>
hivel=42
key=D#4
lovel=0
sample=Horn_staccato_PP_D#4_RR4.opus
</region>

<region>
hivel=42
key=D#5
lovel=0
sample=Horn_staccato_PP_D#5_RR4.opus
</region>

<region>
hivel=42
key=D3
lovel=0
sample=Horn_staccato_PP_D3_RR4.opus
</region>

<region>
hivel=42
key=D4
lovel=0
sample=Horn_staccato_PP_D4_RR4.opus
</region>

<region>
hivel=42
key=D5
lovel=0
sample=Horn_staccato_PP_D5_RR4.opus
</region>

<region>
hivel=42
key=E3
lovel=0
sample=Horn_staccato_PP_E3_RR4.opus
</region>

<region>
hivel=42
key=E4
lovel=0
sample=Horn_staccato_PP_E4_RR4.opus
</region>

<region>
hivel=42
key=E5
lovel=0
sample=Horn_staccato_PP_E5_RR4.opus
</region>

<region>
hivel=42
key=F#2
lovel=0
sample=Horn_staccato_PP_F#2_RR4.opus
</region>

<region>
hivel=42
key=F#3
lovel=0
sample=Horn_staccato_PP_F#3_RR4.opus
</region>

<region>
hivel=42
key=F#4
lovel=0
sample=Horn_staccato_PP_F#4_RR4.opus
</region>

<region>
hikey=F2
hivel=42
lokey=C2
lovel=0
pitch_keycenter=F2
sample=Horn_staccato_PP_F2_RR4.opus
</region>

<region>
hivel=42
key=F3
lovel=0
sample=Horn_staccato_PP_F3_RR4.opus
</region>

<region>
hivel=42
key=F4
lovel=0
sample=Horn_staccato_PP_F4_RR4.opus
</region>

<region>
hikey=A#5
hivel=42
lokey=F5
lovel=0
pitch_keycenter=F5
sample=Horn_staccato_PP_F5_RR4.opus
</region>

<region>
hivel=42
key=G#2
lovel=0
sample=Horn_staccato_PP_G#2_RR4.opus
</region>

<region>
hivel=42
key=G#3
lovel=0
sample=Horn_staccato_PP_G#3_RR4.opus
</region>

<region>
hivel=42
key=G#4
lovel=0
sample=Horn_staccato_PP_G#4_RR4.opus
</region>

<region>
hivel=42
key=G2
lovel=0
sample=Horn_staccato_PP_G2_RR4.opus
</region>

<region>
hivel=42
key=G3
lovel=0
sample=Horn_staccato_PP_G3_RR4.opus
</region>

<region>
hivel=42
key=G4
lovel=0
sample=Horn_staccato_PP_G4_RR4.opus
</region>
</group>